PathFileType	4	(X/Y/Z)	/Users/itak/Documents/Research/Walk-IL/dataset/trc/00219_00009.trc
DataRate	CameraRate	NumFrames	NumMarkers	Units	OrigDataRate	OrigDataStartFrame	OrigNumFrames
100.000000	100.000000	4	53	mm	100.000000	179	479
Frame#	Time	RPSI			LPSI			L3			STRN			T10			C7			CLAV			RBAK			LBAK			LSHO			LUPA			LAEL			LAOL			LWTS			LWPS			LFRA			LIFD			LHPS			LHTS			RSHO			RUPA			RAEL			RAOL			RWTS			RWPS			RFRA			RIFD			RHTS			RHPS			RBHD			LFHD			RFHD			LBHD			LHIP			RHIP			RASI			LASI			LKNE			LTHI			LANK			LTIP			LTOE			LMT1			LMT5			LHEE			RKNE			RANK			RTIP			RTOE			RMT1			RMT5			RHEE			RTHI			
		X1	Y1	Z1	X2	Y2	Z2	X3	Y3	Z3	X4	Y4	Z4	X5	Y5	Z5	X6	Y6	Z6	X7	Y7	Z7	X8	Y8	Z8	X9	Y9	Z9	X10	Y10	Z10	X11	Y11	Z11	X12	Y12	Z12	X13	Y13	Z13	X14	Y14	Z14	X15	Y15	Z15	X16	Y16	Z16	X17	Y17	Z17	X18	Y18	Z18	X19	Y19	Z19	X20	Y20	Z20	X21	Y21	Z21	X22	Y22	Z22	X23	Y23	Z23	X24	Y24	Z24	X25	Y25	Z25	X26	Y26	Z26	X27	Y27	Z27	X28	Y28	Z28	X29	Y29	Z29	X30	Y30	Z30	X31	Y31	Z31	X32	Y32	Z32	X33	Y33	Z33	X34	Y34	Z34	X35	Y35	Z35	X36	Y36	Z36	X37	Y37	Z37	X38	Y38	Z38	X39	Y39	Z39	X40	Y40	Z40	X41	Y41	Z41	X42	Y42	Z42	X43	Y43	Z43	X44	Y44	Z44	X45	Y45	Z45	X46	Y46	Z46	X47	Y47	Z47	X48	Y48	Z48	X49	Y49	Z49	X50	Y50	Z50	X51	Y51	Z51	X52	Y52	Z52	X53	Y53	Z53	

180	1.79	-653.7733154296875	1042.052734375	-170.3258514404297	-654.6824340820312	1045.9853515625	-49.76995468139648	-651.222412109375	1127.9921875	-96.83486938476562	-895.8064575195312	1319.00439453125	-85.82905578613281	-642.2528686523438	1253.580688476562	-105.9886169433594	-700.2562255859375	1516.969970703125	-104.6366424560547	-866.7369384765625	1436.107299804688	-90.58346557617188	-631.74169921875	1376.332885742188	-181.7784271240234	-673.9509887695312	1479.681396484375	7.13829517364502	-759.7163696289062	1484.585205078125	68.31940460205078	-733.7567749023438	1368.679565429688	152.4286804199219	-765.4345703125	1159.34375	186.2286376953125	-692.374755859375	1135.558227539062	141.4899444580078	-891.4204711914062	947.4424438476562	117.1774520874023	-873.7293701171875	923.8921508789062	197.2011260986328	-805.1978149414062	1057.165771484375	196.3595123291016	-934.749755859375	758.7379150390625	118.3057022094727	-907.8798828125	841.0284423828125	189.1729888916016	-947.15234375	855.3936157226562	134.7546844482422	-773.2953491210938	1472.981811523438	-267.7153625488281	-759.3895263671875	1407.333251953125	-334.8438720703125	-742.6199951171875	1127.590576171875	-375.3656005859375	-706.6387939453125	1118.188232421875	-287.5631103515625	-876.7930908203125	911.4794311523438	-341.753662109375	-823.2439575195312	900.1356811523438	-405.4763488769531	-768.4228515625	1059.991821289062	-389.7097473144531	-884.6383056640625	716.8988647460938	-341.24365234375	-911.576904296875	789.1657104492188	-360.34375	-858.276611328125	791.940185546875	-409.5897216796875	-739.0499877929688	1668.01708984375	-158.2904357910156	-929.4337158203125	1727.125	-47.70056915283203	-937.6943969726562	1723.6416015625	-147.5839996337891	-772.249267578125	1681.80859375	-22.44610023498535	-758.5252075195312	989.1146850585938	90.33675384521484	-751.3733520507812	1004.372680664062	-277.6669921875	-847.3377075195312	1051.06396484375	-239.9008636474609	-857.032470703125	1033.994140625	39.72405624389648	-894.8621215820312	519.9712524414062	42.15205001831055	-857.4721069335938	657.3792724609375	72.16558074951172	-874.1578979492188	38.28140640258789	31.48539733886719	-883.7454833984375	288.3221435546875	44.99206161499023	-1080.990600585938	52.61188125610352	-40.96502304077148	-1011.899780273438	42.80179595947266	-78.62776947021484	-1004.685546875	39.73284912109375	36.62425994873047	-808.9772338867188	46.00547409057617	-16.2931022644043	-807.29931640625	509.7929077148438	-246.6397399902344	-502.9065856933594	114.5776977539062	-231.7618103027344	-765.6050415039062	394.89599609375	-231.8668823242188	-696.9752197265625	45.63221740722656	-190.1300506591797	-645.9885864257812	62.53877258300781	-145.1911163330078	-599.155029296875	61.81136703491211	-254.4651031494141	-449.6049499511719	147.4566192626953	-173.5308074951172	-818.818359375	780.4689331054688	-279.9457092285156	
181	1.8	-647.8040771484375	1041.798217773438	-171.50439453125	-648.6846313476562	1045.655517578125	-51.02915954589844	-645.4209594726562	1127.376586914062	-98.27637481689453	-890.125	1318.218383789062	-86.79098510742188	-636.70703125	1252.837524414062	-107.7141036987305	-694.6715087890625	1516.246826171875	-106.3298873901367	-861.06640625	1435.296752929688	-91.65899658203125	-626.2736206054688	1375.57666015625	-183.6389312744141	-668.05322265625	1478.996459960938	5.309769630432129	-753.5586547851562	1483.9833984375	66.89131927490234	-726.6041870117188	1368.139282226562	150.8829650878906	-756.2557373046875	1158.555419921875	184.6836853027344	-683.306396484375	1135.452270507812	139.3321533203125	-880.5706787109375	945.3387451171875	116.8398590087891	-861.9520263671875	922.007080078125	196.7055511474609	-794.8573608398438	1056.008422851562	195.2446136474609	-922.0177612304688	756.1917724609375	118.3548431396484	-895.313232421875	838.7796020507812	188.9952545166016	-935.1814575195312	852.7017211914062	134.9167327880859	-768.2395629882812	1472.078125	-269.1588745117188	-754.5467529296875	1406.344360351562	-336.2529602050781	-738.6181030273438	1126.506469726562	-376.5765075683594	-702.133056640625	1117.115478515625	-288.9720764160156	-873.1408081054688	910.7618408203125	-341.9832458496094	-819.947021484375	899.2211303710938	-405.9784240722656	-764.6972045898438	1058.9697265625	-390.7122497558594	-881.486328125	716.2163696289062	-341.2771911621094	-908.3411254882812	788.5468139648438	-360.2921142578125	-855.3160400390625	791.1246948242188	-409.8282165527344	-733.3550415039062	1667.169921875	-159.9103851318359	-923.4971313476562	1726.6064453125	-49.07526397705078	-931.915283203125	1723.060302734375	-148.9126129150391	-766.3152465820312	1681.138916015625	-24.02010726928711	-752.49951171875	988.5820922851562	88.96456909179688	-745.1593017578125	1003.665832519531	-278.9067993164062	-841.5691528320312	1050.151489257812	-241.3912353515625	-850.987060546875	1033.116943359375	38.29621124267578	-891.1924438476562	520.1009521484375	41.49306869506836	-852.7763061523438	657.2052001953125	71.32823944091797	-874.1383666992188	38.27561187744141	31.51987266540527	-881.8897705078125	288.428955078125	44.6878547668457	-1080.9755859375	52.92011260986328	-40.74448013305664	-1011.981567382812	43.05536270141602	-78.48148345947266	-1004.684753417969	39.64643478393555	36.66504287719727	-809.014404296875	45.97856521606445	-16.34746551513672	-795.0238037109375	508.9686279296875	-247.7248229980469	-495.6008605957031	109.223518371582	-232.6613464355469	-754.0813598632812	393.7213745117188	-233.013671875	-690.3471069335938	45.3553352355957	-190.5234375	-639.44287109375	60.7870979309082	-145.580322265625	-592.521484375	57.84122467041016	-255.0751037597656	-441.8330383300781	141.8950958251953	-174.6741333007812	-810.540283203125	779.3978271484375	-281.266845703125	
182	1.81	-641.7018432617188	1041.523315429688	-172.7101593017578	-642.5045166015625	1045.328979492188	-52.35568618774414	-639.5173950195312	1126.741821289062	-99.78791046142578	-884.4025268554688	1317.346801757812	-87.83985900878906	-631.0951538085938	1252.068725585938	-109.5121765136719	-689.0738525390625	1515.488403320312	-108.0832672119141	-855.375	1434.406982421875	-92.80493927001953	-620.7627563476562	1374.79736328125	-185.5635070800781	-662.14697265625	1478.271362304688	3.425480842590332	-747.3994140625	1483.330322265625	65.39523315429688	-719.4558715820312	1367.560546875	149.2726287841797	-747.0609741210938	1157.750610351562	183.0807952880859	-674.2271118164062	1135.3388671875	137.15673828125	-869.5515747070312	943.1485595703125	116.4116516113281	-850.058349609375	920.0903930664062	196.1228485107422	-784.4886474609375	1054.833129882812	194.0466766357422	-908.9474487304688	753.5482788085938	118.3417129516602	-882.5380249023438	836.482177734375	188.7445220947266	-922.9592895507812	849.9003295898438	134.9782104492188	-763.1425170898438	1471.131958007812	-270.6546020507812	-749.6865844726562	1405.3125	-337.7250061035156	-734.6121215820312	1125.37255859375	-377.8520202636719	-697.5664672851562	1115.998413085938	-290.4599914550781	-869.556396484375	910.0755004882812	-342.1516418457031	-816.7560424804688	898.2826538085938	-406.4378356933594	-760.990966796875	1057.902954101562	-391.7495422363281	-878.5618286132812	715.587158203125	-341.1788635253906	-905.2650756835938	787.97216796875	-360.1241455078125	-852.53466796875	790.3060913085938	-409.9651489257812	-727.6796264648438	1666.290161132812	-161.5730133056641	-917.600341796875	1725.991455078125	-50.49208068847656	-926.17529296875	1722.387817382812	-150.2983856201172	-760.4188842773438	1680.4091796875	-25.63932991027832	-746.3461303710938	988.0040893554688	87.49620056152344	-738.7723388671875	1002.920227050781	-280.2166442871094	-835.6343383789062	1049.170288085938	-242.9748382568359	-844.807861328125	1032.1611328125	36.76419830322266	-887.3562622070312	520.2108764648438	40.79256439208984	-847.9287719726562	657.0130004882812	70.42660522460938	-874.097900390625	38.25223922729492	31.55249786376953	-879.9285888671875	288.5358276367188	44.36484146118164	-1080.9443359375	53.37214660644531	-40.4399299621582	-1012.075073242188	43.41632461547852	-78.29002380371094	-1004.66455078125	39.52611541748047	36.72686767578125	-809.04345703125	45.92147445678711	-16.39740943908691	-782.5713500976562	508.1951904296875	-248.8508148193359	-489.4758605957031	103.0563507080078	-233.4259490966797	-742.6497802734375	392.5140380859375	-234.2255096435547	-685.1659545898438	45.24605941772461	-190.7134704589844	-634.2913818359375	59.02659606933594	-145.8476715087891	-587.2971801757812	53.64855575561523	-255.5680847167969	-435.0653076171875	135.3287811279297	-175.7045440673828	-802.1199340820312	778.3745727539062	-282.6089477539062	
183	1.82	-635.4613647460938	1041.229858398438	-173.9369659423828	-636.1397094726562	1045.008178710938	-53.74436187744141	-633.5155029296875	1126.094970703125	-101.3651885986328	-878.6378784179688	1316.393432617188	-88.9810791015625	-625.40869140625	1251.281494140625	-111.3802947998047	-683.4633178710938	1514.705688476562	-109.8955459594727	-849.6646728515625	1433.4404296875	-94.027099609375	-615.2062377929688	1374.004516601562	-187.5482635498047	-656.22900390625	1477.513427734375	1.484694361686707	-741.2382202148438	1482.627075195312	63.83414840698242	-712.3108520507812	1366.940795898438	147.5996551513672	-737.86328125	1156.925903320312	181.4217681884766	-665.1463012695312	1135.2138671875	134.9633026123047	-858.3723754882812	940.880615234375	115.889274597168	-838.064208984375	918.1466064453125	195.4472961425781	-774.0965576171875	1053.638793945312	192.7664489746094	-895.5471801757812	750.8206176757812	118.262451171875	-869.5715942382812	834.1454467773438	188.4124755859375	-910.5067749023438	847.0028686523438	134.9270324707031	-757.9949951171875	1470.148681640625	-272.2001647949219	-744.8075561523438	1404.24169921875	-339.2594604492188	-730.6005859375	1124.19384765625	-379.1960144042969	-692.9356689453125	1114.838500976562	-292.0252380371094	-866.02734375	909.4226684570312	-342.2603149414062	-813.6651611328125	897.3247680664062	-406.8562316894531	-757.2974853515625	1056.794677734375	-392.8229370117188	-875.8358154296875	715.008056640625	-340.9464416503906	-902.3301391601562	787.44384765625	-359.8373107910156	-849.9180908203125	789.4901123046875	-410.001953125	-722.0294189453125	1665.391357421875	-163.2775726318359	-911.7467651367188	1725.287231445312	-51.94276428222656	-920.4788818359375	1721.630859375	-151.7360534667969	-754.561767578125	1679.622924804688	-27.30236625671387	-740.0478515625	987.3749389648438	85.93836975097656	-732.1953125	1002.152893066406	-281.5959167480469	-829.5223388671875	1048.130493164062	-244.6476135253906	-838.4938354492188	1031.125854492188	35.12689208984375	-883.3313598632812	520.2970581054688	40.05609130859375	-842.9136352539062	656.7996826171875	69.46230316162109	-874.0363159179688	38.2075080871582	31.57736396789551	-877.837890625	288.6432800292969	44.02618026733398	-1080.892822265625	54.00824737548828	-40.04788208007812	-1012.165405273438	43.91554641723633	-78.04989624023438	-1004.616577148438	39.37789535522461	36.81032180786133	-809.0613403320312	45.82737350463867	-16.44118690490723	-770.017578125	507.4776000976562	-250.0186157226562	-484.4151611328125	96.36547088623047	-234.0037536621094	-731.335693359375	391.2991943359375	-235.4900970458984	-681.304931640625	45.25539779663086	-190.7033233642578	-630.3917846679688	57.35063552856445	-146.0230407714844	-583.3167724609375	49.52671432495117	-255.9341125488281	-429.2030029296875	128.0068054199219	-176.5409088134766	-793.6085815429688	777.4489135742188	-283.9329833984375	
